# xmcd CD database file
#
# Track frame offsets:
#	150
#	3617
#	25890
#	40645
#	72110
#
# Disc length: 1002 seconds
#
# Revision: 1
# Processed by: cddbd v1.5.2PL0 Copyright (c) Steve Scherf et al.
# Submitted via: CDex 1.51
#
DISCID=3403e805
DTITLE=LAREINE - MAJESTY
DYEAR=2003
DGENRE=ヴィジュアル
TTITLE0=Crescent Arrow
TTITLE1=Scarlet Majesty
TTITLE2=gipsy
TTITLE3=a wish of monika
TTITLE4=horoscope #1
EXTD=YEAR: 2003
EXTT0=
EXTT1=
EXTT2=
EXTT3=
EXTT4=
PLAYORDER=
